<svg width="26" height="25" viewBox="0 0 26 25" fill="none" xmlns="http://www.w3.org/2000/svg">
<path d="M25.2232 22.6177L20.4178 17.9109C21.9682 15.9705 22.8095 13.5743 22.8064 11.1075C22.8064 8.91067 22.1432 6.76315 20.9008 4.93652C19.6584 3.1099 17.8925 1.68622 15.8265 0.845515C13.7605 0.00481268 11.487 -0.215153 9.29374 0.213433C7.10045 0.64202 5.08577 1.69991 3.50449 3.25333C1.92321 4.80674 0.846346 6.78591 0.410072 8.94056C-0.0262026 11.0952 0.197709 13.3286 1.05349 15.3582C1.90927 17.3878 3.35849 19.1226 5.21788 20.3431C7.07727 21.5636 9.26332 22.2151 11.4996 22.2151C14.0106 22.2181 16.4498 21.3917 18.425 19.8686L23.2162 24.5893C23.3476 24.7194 23.5039 24.8227 23.6762 24.8932C23.8484 24.9637 24.0331 25 24.2197 25C24.4063 25 24.591 24.9637 24.7632 24.8932C24.9355 24.8227 25.0918 24.7194 25.2232 24.5893C25.3556 24.4602 25.4608 24.3067 25.5325 24.1375C25.6043 23.9683 25.6412 23.7868 25.6412 23.6035C25.6412 23.4202 25.6043 23.2387 25.5325 23.0695C25.4608 22.9004 25.3556 22.7468 25.2232 22.6177ZM3.01951 11.1075C3.01951 9.45989 3.51686 7.84924 4.44866 6.47928C5.38046 5.10931 6.70487 4.04155 8.2544 3.41102C9.80393 2.78049 11.509 2.61552 13.154 2.93696C14.7989 3.2584 16.3099 4.05182 17.4959 5.21688C18.6819 6.38194 19.4895 7.86632 19.8167 9.48231C20.1439 11.0983 19.976 12.7733 19.3342 14.2955C18.6923 15.8178 17.6054 17.1188 16.2109 18.0342C14.8163 18.9496 13.1768 19.4382 11.4996 19.4382C9.25053 19.4382 7.09359 18.5605 5.50326 16.9982C3.91294 15.4359 3.01951 13.317 3.01951 11.1075Z" fill="#D9D9D9"/>
</svg>
